<svg width="364" height="146" viewBox="0 0 364 146" fill="none" xmlns="http://www.w3.org/2000/svg">
<path d="M363.839 5.00519H279.406" stroke="#2B2B2B" stroke-width="10"/>
<path d="M358.844 85.4636V3.00002" stroke="#2B2B2B" stroke-width="10"/>
<path d="M0 140.198H84.4323" stroke="#2B2B2B" stroke-width="10"/>
<path d="M4.99475 59.7396V142.203" stroke="#2B2B2B" stroke-width="10"/>
<path d="M194.294 139.209C198.294 139.209 201.523 136.793 202.523 133.126H200.336C199.482 135.584 197.169 137.126 194.377 137.126C190.711 137.126 188.107 134.48 188.107 130.688C188.107 126.876 190.711 124.23 194.377 124.23C197.086 124.23 199.336 125.668 200.169 128.043H202.377C201.294 124.438 198.169 122.147 194.294 122.147C189.461 122.147 185.982 125.73 185.982 130.688C185.982 135.626 189.461 139.209 194.294 139.209Z" fill="#2B2B2B"/>
<path d="M204.179 138.897H206.388L207.888 135.168H215.909L217.45 138.897H219.638L212.867 122.459H210.95L204.179 138.897ZM208.7 133.23L211.909 125.355L215.117 133.23H208.7Z" fill="#2B2B2B"/>
<path d="M226.383 138.897H228.466V124.438H234.008V122.459H220.821V124.438H226.383V138.897Z" fill="#2B2B2B"/>
<path d="M237.048 126.313V127.543C238.652 127.293 239.839 125.709 239.839 123.751C239.839 122.313 239.027 121.355 237.839 121.355C236.881 121.355 236.256 122.001 236.256 122.855C236.256 123.709 236.881 124.355 237.756 124.355C237.923 124.355 238.131 124.334 238.339 124.272C238.381 125.251 237.923 126.001 237.048 126.313Z" fill="#2B2B2B"/>
<path d="M249.149 139.209C252.733 139.209 255.066 137.438 255.066 134.584C255.066 132.168 253.441 130.709 249.233 129.668C246.045 128.897 244.983 128.043 244.983 126.688C244.983 125.105 246.399 124.126 248.733 124.126C251.149 124.126 252.67 125.355 252.712 127.313H254.754C254.733 124.126 252.42 122.147 248.733 122.147C245.149 122.147 242.879 123.918 242.879 126.688C242.879 129.23 244.67 130.626 248.712 131.605C251.67 132.293 252.92 133.126 252.92 134.647C252.92 136.272 251.462 137.23 249.149 137.23C246.587 137.23 244.795 135.959 244.754 133.855H242.691C242.712 137.063 245.212 139.209 249.149 139.209Z" fill="#2B2B2B"/>
<path d="M264.681 138.897H266.744V131.98H273.494V130.063H266.744V124.397H274.098V122.459H264.681V138.897Z" fill="#2B2B2B"/>
<path d="M277.781 138.897H287.822V136.918H279.843V122.459H277.781V138.897Z" fill="#2B2B2B"/>
<path d="M298.409 139.209C303.409 139.209 306.93 135.688 306.93 130.688C306.93 125.668 303.409 122.147 298.409 122.147C293.409 122.147 289.909 125.668 289.909 130.688C289.909 135.688 293.409 139.209 298.409 139.209ZM292.034 130.688C292.034 126.855 294.638 124.23 298.409 124.23C302.201 124.23 304.805 126.855 304.805 130.688C304.805 134.501 302.201 137.126 298.409 137.126C294.638 137.126 292.034 134.501 292.034 130.688Z" fill="#2B2B2B"/>
<path d="M314.045 138.897H315.983L320.899 125.584L325.858 138.897H327.795L333.129 122.459H330.983L326.754 135.605L321.899 122.459H319.941L315.087 135.584L310.879 122.459H308.712L314.045 138.897Z" fill="#2B2B2B"/>
<path d="M86.5261 46.0018H76.4636C75.9219 46.0018 75.5261 46.3976 75.5261 46.7101V87.356L46.7344 46.231C46.6511 46.0851 46.1927 46.0018 46.0469 46.0018H35.6511C35.2761 46.0018 34.8802 46.3976 34.8802 46.7101V93.4393H46.8177V67.0643L75.5261 108.189C75.6094 108.335 76.0677 108.418 76.2344 108.418H86.5261C87.0677 108.418 87.3802 108.023 87.3802 107.71V46.7101C87.3802 46.3976 87.0677 46.0018 86.5261 46.0018Z" fill="#2B2B2B"/>
<path d="M147.61 107.481L123.881 46.4601C123.652 45.856 122.568 45.856 122.318 46.4601L98.6935 107.481C98.4643 107.96 98.756 108.418 99.4643 108.418H110.152C110.464 108.418 110.86 108.273 110.943 107.96L123.11 73.1476L135.443 107.96C135.506 108.273 135.902 108.418 136.131 108.418H146.902C147.443 108.418 147.839 107.96 147.61 107.481Z" fill="#2B2B2B"/>
<path d="M204.715 46.0018H194.57C194.007 46.0018 193.715 46.3976 193.715 46.7101V87.5851C193.715 93.8976 187.924 96.9393 182.07 96.9393C176.299 96.9393 171.153 93.6685 170.445 87.5018V57.3143H158.674V87.5851C158.674 100.46 169.215 108.418 182.07 108.418C195.34 108.418 205.486 100.773 205.486 87.5851V46.7101C205.486 46.3976 205.09 46.0018 204.715 46.0018Z" fill="#2B2B2B"/>
<path d="M266.168 107.252L241.126 77.7518L265.939 47.1685C266.481 46.6268 266.106 46.0018 265.231 46.0018H252.522C252.356 46.0018 251.897 46.1476 251.814 46.231L228.335 75.106V46.7101C228.335 46.3976 228.022 46.0018 227.564 46.0018H217.251C216.793 46.0018 216.397 46.3976 216.397 46.7101V104.585C216.397 104.585 231.606 87.356 233.168 85.7101L251.356 108.189C251.439 108.273 251.897 108.418 252.043 108.418H265.481C266.251 108.418 266.647 107.877 266.168 107.252Z" fill="#2B2B2B"/>
<path d="M326.475 107.481L302.746 46.4601C302.517 45.856 301.433 45.856 301.183 46.4601L277.558 107.481C277.329 107.96 277.621 108.418 278.329 108.418H289.017C289.329 108.418 289.725 108.273 289.808 107.96L301.975 73.1476L314.308 107.96C314.371 108.273 314.767 108.418 314.996 108.418H325.767C326.308 108.418 326.704 107.96 326.475 107.481Z" fill="#2B2B2B"/>
<path d="M47 102C47 105.314 44.3137 108 41 108C37.6863 108 35 105.314 35 102C35 98.6863 37.6863 96 41 96C44.3137 96 47 98.6863 47 102Z" fill="#2B2B2B"/>
</svg>
