<svg width="293" height="63" viewBox="0 0 293 63" fill="none" xmlns="http://www.w3.org/2000/svg">
<path d="M52.5261 0.00180054H42.4636C41.9219 0.00180054 41.5261 0.397634 41.5261 0.710134V41.356L12.7344 0.230967C12.6511 0.0851339 12.1927 0.00180054 12.0469 0.00180054H1.65108C1.27608 0.00180054 0.880249 0.397634 0.880249 0.710134V47.4393H12.8177V21.0643L41.5261 62.1893C41.6094 62.3351 42.0677 62.4185 42.2344 62.4185H52.5261C53.0677 62.4185 53.3802 62.0226 53.3802 61.7101V0.710134C53.3802 0.397634 53.0677 0.00180054 52.5261 0.00180054Z" fill="white"/>
<path d="M113.61 61.481L89.881 0.460144C89.6518 -0.144023 88.5685 -0.144023 88.3185 0.460144L64.6935 61.481C64.4643 61.9601 64.756 62.4185 65.4643 62.4185H76.1518C76.4643 62.4185 76.8601 62.2726 76.9435 61.9601L89.1101 27.1476L101.443 61.9601C101.506 62.2726 101.902 62.4185 102.131 62.4185H112.902C113.443 62.4185 113.839 61.9601 113.61 61.481Z" fill="white"/>
<path d="M170.715 0.00180054H160.57C160.007 0.00180054 159.715 0.397634 159.715 0.710134V41.5851C159.715 47.8976 153.924 50.9393 148.07 50.9393C142.299 50.9393 137.153 47.6685 136.445 41.5018V11.3143H124.674V41.5851C124.674 54.4601 135.215 62.4185 148.07 62.4185C161.34 62.4185 171.486 54.7726 171.486 41.5851V0.710134C171.486 0.397634 171.09 0.00180054 170.715 0.00180054Z" fill="white"/>
<path d="M232.168 61.2518L207.126 31.7518L231.939 1.16847C232.481 0.626801 232.106 0.00180054 231.231 0.00180054H218.522C218.356 0.00180054 217.897 0.147634 217.814 0.230967L194.335 29.106V0.710134C194.335 0.397634 194.022 0.00180054 193.564 0.00180054H183.251C182.793 0.00180054 182.397 0.397634 182.397 0.710134V58.5851C182.397 58.5851 197.606 41.356 199.168 39.7101L217.356 62.1893C217.439 62.2726 217.897 62.4185 218.043 62.4185H231.481C232.251 62.4185 232.647 61.8768 232.168 61.2518Z" fill="white"/>
<path d="M292.475 61.481L268.746 0.460144C268.517 -0.144023 267.433 -0.144023 267.183 0.460144L243.558 61.481C243.329 61.9601 243.621 62.4185 244.329 62.4185H255.017C255.329 62.4185 255.725 62.2726 255.808 61.9601L267.975 27.1476L280.308 61.9601C280.371 62.2726 280.767 62.4185 280.996 62.4185H291.767C292.308 62.4185 292.704 61.9601 292.475 61.481Z" fill="white"/>
<path d="M13 56C13 59.3137 10.3137 62 7 62C3.68629 62 1 59.3137 1 56C1 52.6863 3.68629 50 7 50C10.3137 50 13 52.6863 13 56Z" fill="white"/>
</svg>
